<?xml version="1.0" standalone="no"?>
<!DOCTYPE svg PUBLIC "-//W3C//DTD SVG 20010904//EN"
 "http://www.w3.org/TR/2001/REC-SVG-20010904/DTD/svg10.dtd">
<svg version="1.0" xmlns="http://www.w3.org/2000/svg"
 width="530.000000pt" height="550.000000pt" viewBox="0 0 530.000000 550.000000"
 preserveAspectRatio="xMidYMid meet">

<g transform="translate(0.000000,550.000000) scale(0.100000,-0.100000)"
fill="#000000" stroke="none">
<path d="M4086 4079 c-75 -11 -161 -52 -251 -118 -93 -68 -157 -88 -234 -70
-31 7 -91 14 -133 17 -77 3 -77 3 -190 -54 -62 -32 -138 -76 -168 -99 -76 -57
-245 -159 -311 -189 -220 -97 -453 -139 -650 -116 -90 10 -325 63 -358 80 -9
5 -59 29 -111 53 -82 39 -147 81 -363 235 -21 15 -62 49 -90 75 -63 58 -139
99 -175 95 -24 -3 -27 -7 -26 -39 1 -42 82 -165 153 -234 23 -21 41 -45 41
-53 0 -17 237 -252 305 -301 114 -84 428 -251 470 -251 8 0 15 -4 15 -9 0 -5
-139 -8 -324 -7 -178 0 -322 -2 -320 -5 2 -4 107 -10 233 -14 195 -6 229 -9
224 -22 -3 -8 -11 -12 -18 -9 -8 3 -26 1 -42 -4 -23 -7 -17 -9 37 -11 36 -1
81 -2 100 -1 27 2 32 0 20 -8 -8 -6 -46 -10 -85 -10 -207 2 -264 0 -268 -7 -3
-4 65 -9 151 -10 302 -3 391 -6 386 -15 -8 -13 14 -9 47 8 39 20 47 12 18 -15
-22 -21 -16 -27 15 -15 9 3 13 10 10 15 -3 5 -2 10 3 10 47 7 63 6 63 -2 0 -5
-6 -9 -12 -9 -7 0 -24 -10 -38 -21 l-25 -20 25 12 c29 15 82 21 74 8 -3 -5 2
-9 10 -9 8 0 18 5 21 10 3 6 11 10 17 10 6 0 5 -7 -3 -16 -12 -15 -11 -16 11
-9 14 4 36 15 50 24 14 9 39 22 55 29 30 12 30 12 8 -5 -12 -10 -33 -26 -45
-35 -22 -17 -22 -17 16 -2 21 8 41 13 44 10 3 -3 20 4 38 15 19 11 38 18 44
14 5 -3 18 -1 27 4 11 6 13 11 5 11 -7 0 -10 5 -7 10 3 6 14 10 23 10 15 0 15
-2 2 -10 -8 -5 -11 -10 -6 -10 19 0 -17 -29 -45 -35 -16 -4 -29 -11 -29 -16 0
-6 -4 -8 -8 -5 -5 3 -9 -1 -9 -9 0 -19 -1 -20 54 15 26 17 54 30 62 30 9 0 3
-7 -14 -16 -16 -8 -34 -19 -39 -25 -16 -15 8 -11 30 6 25 19 38 19 30 -1 -6
-15 4 -13 32 9 11 8 11 12 0 20 -9 6 -8 7 5 3 10 -3 31 1 48 9 30 16 40 32 13
21 -8 -3 -13 -2 -10 2 3 5 44 9 91 9 50 0 92 6 98 12 13 13 31 15 23 2 -8 -12
18 -21 44 -14 13 3 19 11 16 19 -3 8 1 14 8 14 7 0 19 7 26 15 10 12 16 13 24
4 8 -8 7 -13 -2 -16 -7 -3 -25 -15 -40 -27 -15 -13 -34 -26 -42 -29 -10 -3 -6
-6 10 -7 51 -4 85 3 109 21 13 10 32 19 42 19 11 0 19 5 19 10 0 6 6 10 14 10
8 0 18 9 21 20 3 11 13 20 21 20 8 0 12 -4 9 -10 -8 -13 2 -13 28 2 15 8 87
13 220 14 109 1 201 4 204 8 8 8 4 8 -256 12 -117 1 -216 5 -219 8 -3 3 3 6
12 6 10 0 30 6 44 14 15 8 54 26 86 41 33 14 107 54 164 88 80 47 114 74 142
113 54 72 99 167 107 222 3 26 12 59 19 74 8 15 14 46 14 70 0 39 5 47 61 100
34 31 91 76 127 100 64 41 70 43 162 48 l95 5 3 36 c4 50 -13 55 -132 38z
m-2029 -985 c-3 -3 -12 -4 -19 -1 -8 3 -5 6 6 6 11 1 17 -2 13 -5z m1093 -10
c0 -8 -23 -27 -73 -60 -28 -19 -42 -22 -55 -15 -14 9 -14 11 -2 12 8 1 20 1
26 0 7 -1 14 8 17 20 4 14 11 20 20 16 9 -3 23 3 33 14 17 19 34 25 34 13z
m-1288 -36 c-6 -6 -15 -8 -19 -4 -4 4 -1 11 7 16 19 12 27 3 12 -12z m631 -28
c-5 -17 -7 -18 -21 -4 -13 13 -13 17 -2 24 19 12 29 4 23 -20z m-473 -6 c0 -2
-19 -4 -42 -4 -26 0 -38 4 -30 8 12 8 72 4 72 -4z m70 6 c0 -5 -12 -10 -27 -9
l-28 1 25 8 c14 4 26 8 28 9 1 1 2 -3 2 -9z m154 -2 c-3 -4 -14 -8 -25 -8 -11
0 -18 4 -15 8 2 4 14 8 25 8 11 0 17 -4 15 -8z m126 1 c0 -4 -25 -7 -55 -8
-33 0 -53 4 -50 9 7 11 105 10 105 -1z m-183 -5 c-3 -3 -12 -4 -19 -1 -8 3 -5
6 6 6 11 1 17 -2 13 -5z m262 2 c-2 -2 -15 -9 -29 -15 -24 -11 -24 -11 -6 3
16 13 49 24 35 12z m55 -31 c-4 -8 -14 -15 -23 -15 -14 1 -13 3 3 15 25 19 27
19 20 0z m-119 -5 c-3 -5 -12 -10 -18 -10 -7 0 -6 4 3 10 19 12 23 12 15 0z"/>
<path d="M3728 3093 c23 -2 59 -2 80 0 20 2 1 4 -43 4 -44 0 -61 -2 -37 -4z"/>
<path d="M3240 3071 c-8 -5 -27 -14 -42 -22 -16 -7 -26 -15 -23 -17 6 -6 158
1 175 7 3 1 44 2 93 1 48 -1 87 3 87 8 0 14 -253 12 -262 -1 -4 -6 -11 -8 -15
-3 -4 5 -2 11 5 13 13 5 17 23 5 22 -5 0 -15 -4 -23 -8z"/>
<path d="M1533 3043 c37 -2 96 -2 130 0 34 2 4 3 -68 3 -71 0 -99 -1 -62 -3z"/>
<path d="M2728 2983 c-21 -14 -38 -29 -38 -34 0 -9 107 -5 117 5 4 4 -15 4
-43 1 l-49 -5 25 20 c29 23 40 25 40 8 0 -9 3 -9 12 0 15 15 32 16 23 2 -3 -5
-1 -10 4 -10 6 0 11 7 11 15 0 8 -9 15 -19 15 -11 0 -25 2 -33 4 -7 3 -30 -7
-50 -21z"/>
<path d="M2850 3000 c0 -5 7 -10 15 -10 8 0 15 -6 15 -12 0 -9 3 -8 10 2 7 11
5 17 -8 22 -25 10 -32 9 -32 -2z"/>
<path d="M2915 3000 c-3 -5 -1 -10 4 -10 6 0 11 5 11 10 0 6 -2 10 -4 10 -3 0
-8 -4 -11 -10z"/>
<path d="M3277 3003 c-3 -4 61 -9 141 -11 81 -2 144 -1 142 1 -10 9 -278 18
-283 10z"/>
<path d="M3138 2993 c12 -2 32 -2 45 0 12 2 2 4 -23 4 -25 0 -35 -2 -22 -4z"/>
<path d="M2050 2970 c8 -5 20 -10 25 -10 6 0 3 5 -5 10 -8 5 -19 10 -25 10 -5
0 -3 -5 5 -10z"/>
<path d="M2850 2949 c0 -5 5 -7 10 -4 6 3 10 8 10 11 0 2 -4 4 -10 4 -5 0 -10
-5 -10 -11z"/>
<path d="M2885 2950 c-3 -5 1 -10 10 -10 9 0 13 5 10 10 -3 6 -8 10 -10 10 -2
0 -7 -4 -10 -10z"/>
<path d="M3148 2953 c7 -3 16 -2 19 1 4 3 -2 6 -13 5 -11 0 -14 -3 -6 -6z"/>
<path d="M3273 2953 c15 -2 39 -2 55 0 15 2 2 4 -28 4 -30 0 -43 -2 -27 -4z"/>
<path d="M3003 2943 c9 -2 23 -2 30 0 6 3 -1 5 -18 5 -16 0 -22 -2 -12 -5z"/>
<path d="M2360 2920 c0 -5 5 -10 10 -10 6 0 10 5 10 10 0 6 -4 10 -10 10 -5 0
-10 -4 -10 -10z"/>
<path d="M2735 2920 c-3 -5 -1 -10 4 -10 6 0 11 5 11 10 0 6 -2 10 -4 10 -3 0
-8 -4 -11 -10z"/>
<path d="M2680 2911 c0 -5 5 -13 10 -16 6 -3 10 -2 10 4 0 5 -4 13 -10 16 -5
3 -10 2 -10 -4z"/>
<path d="M2060 2225 c-76 -228 -84 -247 -112 -261 -26 -14 -29 -20 -24 -46 3
-17 6 -35 6 -40 0 -5 43 -7 98 -6 l97 3 3 34 c3 26 -2 39 -17 50 -17 13 -19
22 -13 46 l8 30 86 3 86 3 11 -33 c10 -29 9 -34 -10 -48 -17 -14 -19 -23 -14
-53 l7 -37 98 0 98 0 7 37 c5 28 3 40 -8 48 -9 5 -22 15 -30 20 -8 6 -52 119
-97 253 l-83 242 -57 0 -58 0 -82 -245z m175 -44 c8 -25 15 -48 15 -53 0 -4
-25 -8 -55 -8 -63 0 -64 1 -36 81 10 30 22 77 26 104 l8 50 13 -65 c8 -35 20
-85 29 -109z"/>
<path d="M1398 2454 c-5 -4 -8 -22 -8 -40 0 -24 5 -34 20 -39 19 -6 20 -15 20
-205 0 -189 -1 -200 -20 -210 -13 -7 -20 -21 -20 -38 0 -54 4 -55 171 -49 174
6 214 16 260 63 26 27 33 43 37 88 5 64 -10 115 -43 146 l-24 22 27 41 c48 72
27 168 -45 203 -31 15 -68 19 -203 22 -91 2 -168 0 -172 -4z m272 -93 c38 -10
57 -51 41 -88 -15 -37 -48 -53 -106 -53 l-45 0 0 75 0 75 43 -1 c23 -1 53 -4
67 -8z m40 -256 c24 -21 27 -82 6 -110 -11 -15 -30 -20 -85 -23 l-71 -4 0 82
0 83 65 -6 c43 -3 73 -11 85 -22z"/>
<path d="M2557 2429 c-4 -28 -1 -38 19 -54 24 -21 24 -22 24 -211 l0 -191 -26
-13 c-18 -10 -24 -20 -20 -35 3 -11 6 -28 6 -39 0 -17 8 -18 148 -14 124 4
155 8 198 27 95 41 133 104 141 231 10 139 -41 246 -139 297 -49 25 -64 27
-199 31 l-146 4 -6 -33z m293 -87 c44 -33 63 -79 68 -161 8 -149 -32 -211
-139 -211 l-59 0 0 201 0 202 52 -6 c29 -4 64 -15 78 -25z"/>
<path d="M3156 2445 c-12 -32 -6 -55 19 -71 l25 -16 0 -191 0 -191 -26 -21
c-22 -18 -25 -26 -19 -53 l7 -32 83 0 83 0 4 36 c3 28 -1 39 -18 52 -22 16
-23 25 -26 190 -2 95 0 165 3 155 4 -10 39 -111 79 -225 l72 -208 57 0 56 0
77 228 77 227 -6 -175 c-5 -158 -7 -177 -25 -191 -14 -11 -19 -25 -16 -50 l3
-34 96 -3 97 -3 7 38 c5 29 3 40 -11 50 -10 7 -21 13 -26 13 -4 0 -8 87 -8
194 l0 194 25 16 c14 10 25 26 25 39 0 44 -11 48 -110 45 l-93 -3 -77 -228
-77 -229 -12 44 c-6 24 -41 126 -79 228 l-67 185 -97 3 c-80 2 -97 0 -102 -13z"/>
<path d="M1997 1643 c-20 -5 -47 -52 -47 -83 0 -24 18 -61 34 -72 6 -4 25 -8
43 -8 40 0 63 30 63 81 0 56 -43 95 -93 82z m53 -33 c22 -22 26 -60 10 -91
-13 -24 -65 -26 -74 -3 -11 29 -6 83 10 98 20 21 30 20 54 -4z"/>
<path d="M2817 1643 c-20 -5 -47 -52 -47 -83 0 -24 18 -61 34 -72 6 -4 25 -8
43 -8 40 0 63 30 63 81 0 56 -43 95 -93 82z m53 -33 c22 -22 26 -60 10 -91
-13 -24 -65 -26 -74 -3 -11 29 -6 83 10 98 20 21 30 20 54 -4z"/>
<path d="M3620 1643 c-50 -18 -68 -93 -34 -141 19 -27 74 -30 96 -4 38 43 29
119 -18 141 -14 6 -26 11 -27 10 -1 0 -9 -3 -17 -6z m52 -37 c9 -13 10 -68 2
-90 -9 -23 -61 -21 -74 3 -34 64 33 144 72 87z"/>
<path d="M1000 1618 c1 -22 1 -22 15 -4 8 11 21 16 30 13 19 -8 21 -117 3
-135 -9 -9 -4 -12 23 -11 18 0 28 3 22 6 -9 3 -13 28 -13 74 0 62 2 69 20 69
11 0 20 -7 20 -15 0 -8 5 -15 10 -15 6 0 10 9 10 20 0 18 -7 20 -70 20 -66 0
-70 -1 -70 -22z"/>
<path d="M1228 1633 c7 -3 12 -26 12 -62 0 -67 18 -91 66 -91 43 0 54 17 54
80 0 31 5 61 12 68 9 9 4 12 -22 11 -19 0 -29 -3 -22 -6 8 -3 12 -26 12 -63 0
-48 -4 -61 -19 -69 -13 -7 -23 -6 -36 2 -14 11 -16 25 -13 75 l3 62 -30 -1
c-16 0 -24 -3 -17 -6z"/>
<path d="M1475 1560 l0 -80 51 0 c27 0 55 5 62 12 17 17 15 55 -4 66 -11 6
-13 11 -5 16 17 11 13 53 -5 60 -9 3 -34 6 -57 6 l-42 0 0 -80z m73 64 c25 -7
30 -39 6 -48 -33 -13 -44 -6 -44 24 0 32 2 33 38 24z m17 -78 c27 -19 13 -46
-25 -46 -27 0 -30 3 -30 30 0 34 22 40 55 16z"/>
<path d="M1688 1633 c8 -3 12 -28 12 -73 0 -45 -4 -70 -12 -73 -7 -3 1 -6 17
-6 l30 -1 0 80 0 80 -30 -1 c-16 0 -24 -3 -17 -6z"/>
<path d="M2178 1633 c8 -3 12 -28 12 -73 0 -45 -4 -70 -12 -73 -7 -3 5 -5 27
-5 22 0 34 2 28 5 -7 2 -13 18 -13 34 0 41 26 38 47 -6 9 -19 23 -35 30 -35
11 0 10 7 -3 32 -15 29 -15 33 0 60 13 21 14 32 6 48 -9 17 -20 20 -73 19 -34
0 -56 -3 -49 -6z m80 -9 c34 -10 26 -48 -10 -52 -25 -3 -28 0 -28 27 0 33 2
34 38 25z"/>
<path d="M2528 1633 c8 -3 12 -28 12 -73 0 -45 -4 -70 -12 -73 -7 -3 5 -6 27
-6 25 0 35 2 27 8 -9 5 -12 25 -10 57 l3 49 35 -57 c48 -79 60 -76 60 16 0 50
4 76 13 79 6 3 -4 5 -23 5 -19 0 -29 -2 -22 -5 7 -3 12 -25 12 -61 l0 -57 -40
63 c-34 52 -45 62 -68 61 -15 0 -21 -3 -14 -6z"/>
<path d="M2990 1626 c0 -21 17 -29 24 -11 3 8 12 15 21 15 12 0 15 -14 15 -69
0 -46 -4 -71 -12 -74 -7 -3 3 -6 22 -6 26 -1 31 2 22 11 -18 18 -16 127 3 135
9 3 22 -2 30 -13 14 -18 14 -18 15 4 0 21 -4 22 -70 22 -54 0 -70 -3 -70 -14z"/>
<path d="M3350 1618 c1 -21 2 -21 11 -5 5 9 17 17 24 17 20 0 22 -136 3 -143
-7 -3 5 -5 27 -5 22 0 34 2 28 5 -20 7 -18 143 2 143 7 0 19 -8 24 -17 9 -16
10 -16 11 5 0 21 -4 22 -65 22 -61 0 -65 -1 -65 -22z"/>
<path d="M3918 1634 c8 -4 12 -29 12 -74 0 -45 -4 -70 -12 -73 -7 -3 15 -6 49
-6 53 -1 64 2 73 19 12 22 5 60 -11 60 -5 0 -4 9 3 20 23 36 0 55 -68 57 -32
1 -53 0 -46 -3z m87 -18 c16 -12 17 -16 6 -30 -7 -9 -22 -16 -32 -16 -14 0
-19 7 -19 30 0 33 15 38 45 16z m9 -71 c22 -22 9 -45 -25 -45 -26 0 -29 4 -29
30 0 23 5 30 19 30 11 0 26 -7 35 -15z"/>
<path d="M4138 1633 c8 -3 12 -28 12 -73 0 -45 -4 -70 -12 -73 -7 -3 17 -6 55
-6 61 -1 67 1 67 19 0 24 -15 27 -24 4 -4 -10 -15 -14 -33 -12 -22 2 -29 9
-31 31 -3 24 0 27 27 27 41 0 49 18 9 22 -28 2 -33 7 -33 28 0 20 6 26 28 28
17 2 29 -2 33 -12 7 -18 24 -11 24 10 0 11 -15 14 -67 13 -38 0 -62 -3 -55 -6z"/>
</g>
</svg>
